# xmcd
#
# Track frame offsets:
#	150
#	19859
#	59479
#	86731
#	135418
#	171051
#	215115
#	248843
#
# Disc length: 3720 seconds
#
# Revision: 1
# Processed by: cddbd v1.5.2PL0 Copyright (c) Steve Scherf et al.
# Submitted via: audiograbber 1.83.01
#
DISCID=6e0e8608
DTITLE=Jan Korinek and Groove - Live at the ramp
DYEAR=2010
DGENRE=Blues
TTITLE0=Crazy Love
TTITLE1=Mother Blues
TTITLE2=Right Side , Wrong Bed
TTITLE3=Angel
TTITLE4=I´d rather drink muddy water
TTITLE5=choosing time
TTITLE6=soulshine
TTITLE7=help me
EXTD=
EXTT0=
EXTT1=
EXTT2=
EXTT3=
EXTT4=
EXTT5=
EXTT6=
EXTT7=
PLAYORDER=
